<svg width="288" height="64" viewBox="0 0 288 64" fill="none" xmlns="http://www.w3.org/2000/svg">
<g clip-path="url(#clip0_534_2006)">
<path d="M288 0H107.857L63.1079 62.6639H243.538L288 0Z" fill="white"/>
<path d="M136.544 41.7758H115.317V20.8878H136.544V41.7758ZM143.715 48.8325V14.1134H108.433V48.8325H143.715ZM186.169 48.8325V14.1134H178.998V27.9446H157.772V14.1134H150.6V48.8325H157.772V35.0014H178.998V48.8325H186.169ZM235.508 41.7758H221.452V20.8878H235.508V41.7758ZM214.281 41.7758H200.225V20.8878H214.281V41.7758ZM242.679 48.8325V14.1134H221.452V7.05664H214.281V14.1134H193.055V48.8325H214.281V55.8893H221.452V48.8325H242.679Z" fill="#003891"/>
<path d="M14.0558 0H0L44.4621 62.6639L51.6334 52.7845L14.0558 0Z" fill="#C12A21"/>
<path d="M28.113 0H14.0571L51.6348 52.7845L58.8062 42.905L28.113 0Z" fill="#009CDD"/>
<path d="M28.1138 0L58.8071 42.905L65.6916 32.7433L42.4565 0H28.1138Z" fill="white"/>
<path d="M69.4206 27.9447L49.6279 0H42.4565L65.6916 32.7433L69.4206 27.9447Z" fill="#003891"/>
</g>
<defs>
<clipPath id="clip0_534_2006">
<rect width="288" height="64" fill="white"/>
</clipPath>
</defs>
</svg>
