<svg width="56" height="58" viewBox="0 0 56 58" fill="none" xmlns="http://www.w3.org/2000/svg">
<path d="M33.6939 19.3266C34.4847 19.4723 34.8807 19.3266 34.8807 18.8178C35.2761 18.9628 35.1775 18.7446 35.4742 18.7446C35.5728 18.5264 35.2728 18.5264 35.2728 18.3083C36.361 18.3814 36.6577 17.6538 37.0531 17.1449C37.5471 17.5813 37.7452 16.9267 37.8438 16.6361C38.3386 16.7811 38.5366 16.5629 38.4373 16.1266C38.734 16.4904 38.932 16.1997 38.734 15.9084H38.5366C38.932 15.7634 39.4268 15.9816 39.7235 15.6177C39.7235 15.472 39.8222 15.2539 39.5221 15.2539C39.5221 15.1089 39.9175 15.2539 40.0168 15.327C40.3135 15.327 40.1155 15.1089 40.0168 14.9632C40.6103 14.745 40.6103 14.5269 40.7089 13.9448C40.8076 14.0905 41.1043 14.018 41.0056 14.2362C41.1043 14.163 41.207 14.018 41.5004 14.163C41.299 13.7267 42.0938 12.9997 42.4892 13.2178C42.6872 13.2178 42.4892 12.9272 42.5886 12.7815C42.7859 12.7815 42.7859 12.9272 42.984 12.9272C42.984 11.7638 45.7531 11.4725 45.8524 10.0909C44.7642 10.3091 43.5774 10.0178 42.4892 10.2359C42.2878 10.2359 42.6872 10.5273 42.3905 10.5273C38.2365 10.5273 34.1812 10.1634 30.4227 10.0909C27.8516 9.65458 23.9943 9.36391 21.7193 8.27239C18.9502 7.69104 7.46768 6.30952 7.76439 3.98213C7.36833 3.32762 7.36833 2.45493 6.67622 2.01859C7.07161 1.87292 7.17096 1.36408 7.26964 0.927734C7.66504 1.00023 7.33677 1.62924 7.7315 1.77424C5.32758 1.43188 10.5073 1.27681 7.92953 1.41107C8.33231 1.39093 8.4565 1.21841 8.55518 1.43658C9.1486 1.87292 9.84138 1.87292 10.6322 2.16426C10.8302 2.7456 11.9184 2.7456 12.8085 2.96378C14.4868 3.76396 25.972 3.76396 27.6536 4.34597C28.247 3.98213 29.1371 4.56415 30.0273 4.49097C29.9286 4.56415 30.1259 4.63665 30.1259 4.78232C30.324 4.78232 30.324 4.56415 30.4227 4.49097C30.522 4.78232 31.9062 4.85482 31.8075 4.41847C32.401 4.70915 33.4858 4.41847 33.9839 4.92732C34.478 4.78232 42.984 5.14549 44.0721 5.21866C48.5228 5.29116 53.2689 3.90963 55.7426 8.92757C56.5341 10.5273 55.2479 11.3275 54.6544 12.2726C54.1604 12.3451 53.7643 12.4908 53.9623 12.9997C52.8742 13.436 51.7867 13.8723 51.3906 14.8175C49.1163 16.9992 46.1491 18.6721 43.8721 20.7813C40.0148 22.963 21.5179 39.1077 18.1567 42.7434C15.4863 44.7795 13.508 47.325 11.1343 49.6518C13.4093 49.2154 16.5718 49.1429 18.7502 48.5609C19.0469 48.7066 19.5416 48.9972 19.739 48.7066C20.6291 48.9247 22.014 48.8522 22.9041 48.6341C23.3989 48.6341 24.289 48.9972 24.3877 48.7066L24.9811 48.9972C25.1872 48.4884 25.978 49.3611 26.1754 48.9247C26.274 48.9247 26.5708 48.9972 26.5708 49.1429C26.6701 49.0704 27.4609 48.9247 27.5603 49.1429C27.7576 49.0704 27.857 49.1429 28.0543 48.9972C28.4504 48.9972 28.2557 49.1429 28.1537 49.2154C29.4392 49.2154 30.6261 49.7249 31.6149 49.5793C32.0109 49.7974 33.1978 49.7249 34.4833 49.9431C34.286 50.0156 33.9893 50.1613 33.9893 50.3794C34.3847 50.5244 35.3735 50.5976 35.8689 50.6701C35.7702 50.5976 35.5722 50.5976 35.6709 50.4519C35.9676 50.5244 35.9676 50.3794 36.2643 50.4519C36.3636 50.5976 36.2643 50.7426 36.1656 50.8158C36.4623 50.8883 36.561 50.6701 36.561 50.8883C36.8577 50.8158 36.3636 50.6701 36.4623 50.5244C36.6637 50.5244 36.6637 50.4519 36.8577 50.5244V50.8158C37.1544 50.8158 37.2531 50.9608 37.4511 50.9608C37.7478 50.9608 37.8465 50.8883 37.9459 50.7426C38.0446 51.179 39.2314 51.034 39.9235 51.3246C40.0229 51.3246 39.9235 51.1065 40.0229 51.034C47.34 52.1973 51.5947 54.0152 51.496 56.0519C51.0999 56.2701 50.2098 55.9787 50.1111 56.4151C50.3125 56.6332 50.7045 56.6332 51.0999 56.7064C50.8032 56.9971 50.0124 56.8514 50.0124 57.2878C48.8256 57.7241 47.0453 56.9971 45.8585 57.0696C44.1769 56.0519 27.5609 53.652 25.2859 54.0883C25.1872 54.0152 25.0879 53.8702 24.8905 53.797C24.0004 53.797 7.5818 55.6149 7.87851 56.5607C4.32064 56.9246 3.23045 54.961 2.0436 53.1425C0.955431 51.3246 -0.132741 49.7249 1.35082 48.7066C2.53768 47.9064 3.1311 47.5432 3.1311 47.325C3.32913 47.1794 3.42782 47.3975 3.62585 47.325C3.23045 46.743 4.41731 46.8155 4.12059 46.2342C4.41731 46.3792 4.41731 46.2342 4.41731 46.016C4.91138 46.2342 4.71402 45.7978 5.01073 45.8703C4.91138 45.7253 4.71402 45.6522 4.71402 45.5065C4.91463 45.4947 5.11571 45.5195 5.30745 45.5797C5.50481 45.434 5.30745 44.9977 5.70284 44.9977C5.60416 43.9793 7.58247 43.398 7.77983 42.4521C7.87851 42.3071 8.17522 42.3796 8.17522 42.2339C8.27458 42.2339 8.27458 42.4521 8.57129 42.3796C8.57129 42.2339 8.37326 42.2339 8.27458 42.1614C8.27458 41.9433 8.66997 42.0158 8.47194 41.7251C8.57129 41.6526 8.76865 41.6526 8.96668 41.7251C8.96668 41.5069 8.868 41.5069 8.96668 41.3619C9.65879 41.5801 9.36208 40.9256 9.85682 40.9256C9.46143 40.0529 10.747 40.2711 11.0437 39.7615C10.8456 39.4709 10.8456 39.9072 10.5489 39.7615C10.4502 39.5434 10.8456 39.6159 11.1424 39.6159V39.0345C12.1318 39.107 12.0325 38.4525 12.3292 38.0162C12.824 38.2343 12.6259 37.8712 12.9226 37.9437C12.7253 37.7255 12.9226 37.5073 13.4174 37.5073C13.4174 37.2892 13.3187 37.3617 13.4174 37.1435C14.1095 36.4165 15.099 35.9801 15.4944 34.9618C16.1865 35.035 16.1865 34.7436 16.1865 34.3804C16.5825 34.4529 16.5825 34.2348 16.9779 34.3804C16.8793 34.0891 16.9779 34.1623 16.9779 33.9441C17.3733 34.3073 17.3733 33.7259 18.0661 33.9441C18.2635 33.9441 17.9668 33.5078 18.3628 33.7259C18.0661 33.4346 17.9668 33.8709 17.5714 33.7259C17.3733 33.3621 17.8681 33.5802 17.8681 33.3621C18.0661 33.6528 18.4615 33.2896 18.8569 33.2896C18.7582 33.0714 18.5602 33.3621 18.2635 33.2164C18.2635 33.1439 18.6595 33.1439 18.2635 33.0714C18.2635 32.8532 18.6595 32.9982 18.6595 32.7076C18.8569 32.7076 18.7582 32.9982 19.0549 32.9257C19.3516 32.9257 18.9562 32.4894 19.3516 32.6351C18.9562 32.4169 19.6483 32.4169 19.5497 32.1256C19.6483 32.1256 19.8464 32.0531 19.8464 31.9074C20.2418 31.9806 20.1431 32.0531 20.4398 31.9806C20.3405 31.9074 20.2418 31.9074 20.2418 31.7624C20.6372 31.9074 20.3405 31.3985 20.7365 31.6167C20.9339 31.8349 20.4398 31.6167 20.6372 31.8349C20.7365 31.8349 20.8352 31.8349 20.8352 31.7624C20.9339 31.471 20.4398 31.6167 20.4398 31.326C20.8352 31.3985 20.9339 31.326 21.2306 31.326C21.1319 30.9622 21.6267 31.0347 21.5273 30.744C21.7253 30.744 21.7253 30.8165 21.7253 30.9622C21.8129 30.9045 21.9177 30.8789 22.0221 30.8897C21.9234 30.6715 21.824 30.5259 21.5273 30.4534C21.6267 30.3077 22.1207 30.5259 22.3188 30.5259C22.4174 30.3077 22.0221 30.3802 22.1207 30.2352C22.4174 30.162 22.3188 30.3802 22.5168 30.3802C22.5168 30.162 22.3188 30.017 22.4174 29.7988C23.4069 29.5807 23.7037 28.2716 24.9892 28.1985C24.9892 27.8353 24.5938 28.1985 24.6925 27.9078C25.0879 27.9803 25.1872 27.6896 25.1872 27.399C26.3741 26.7444 26.9675 25.5811 28.1543 24.9991C28.1543 24.8534 27.953 24.7809 28.055 24.5627C28.2564 24.7809 28.2564 24.5627 28.2564 24.4171C28.5531 24.7084 28.5531 24.4902 28.9485 24.5627C28.5531 24.3446 28.9485 23.9807 29.4432 24.0532C29.0478 23.835 29.5419 23.5444 30.1353 23.69C30.1353 23.5446 30.0364 23.4719 29.8386 23.4719C31.1248 22.6717 31.8169 21.3627 33.3999 20.7081C32.9051 20.2718 33.8939 20.2718 33.8939 19.8355C33.3999 19.6905 33.7953 20.1993 33.3005 20.0536C33.3005 19.8355 33.4985 19.763 33.5972 19.6905C33.6966 19.8355 34.1906 19.9086 34.1906 19.763C33.8939 19.763 34.092 19.5448 33.6966 19.5448L33.6939 19.3266ZM4.21927 48.7791C4.21927 48.9247 4.12059 48.8522 4.01788 48.9247C4.31795 49.0704 4.41731 48.7791 4.21927 48.7791ZM4.71402 48.1246V48.2702C5.01073 48.4159 5.01073 48.0521 4.71402 48.1246ZM5.50481 47.8339V47.47H5.20809C5.20809 47.6157 5.30745 47.7614 5.50481 47.8339ZM7.48312 44.9252C7.48312 45.1433 6.88969 45.2158 7.1864 45.5065C7.38444 45.434 7.58046 45.0702 7.48312 44.9252ZM7.97786 42.6703C8.27458 42.8159 8.27458 42.3796 7.97786 42.4521V42.6703ZM9.06536 43.7618C8.47194 43.5436 7.87851 44.3431 8.17522 44.6345C8.27458 44.1975 8.868 44.1975 9.06536 43.7618ZM9.2634 43.5436V43.398C9.16471 43.398 9.06536 43.3255 8.96668 43.3255V43.4705C9.06536 43.4705 9.16471 43.5436 9.2634 43.5436ZM10.6483 42.2339C10.3516 41.7251 9.65879 42.8159 9.75814 43.0341C10.1535 42.8884 10.0549 42.3071 10.6483 42.2339ZM11.2417 41.3612C11.1373 41.3722 11.0323 41.3463 10.945 41.2881C11.0437 41.6519 10.6483 41.5794 10.6483 41.8701C11.1424 41.9433 11.3397 41.7251 11.2417 41.3619V41.3612ZM12.5272 40.0515C12.0325 40.2704 11.6371 40.7792 11.4391 41.1431H11.5411C11.5411 41.2156 11.5411 41.2881 11.6398 41.2881C11.4418 40.7792 12.4312 40.9249 11.9365 40.5611C12.5272 40.4161 12.3292 40.4161 12.5272 40.0522V40.0515ZM11.9338 51.324C12.2305 51.3965 12.2305 51.6146 12.6259 51.6878C12.9226 51.5421 13.2193 51.3965 13.6154 51.3965C13.5161 51.3965 13.3187 51.5421 13.5161 51.6146C19.1549 50.1606 26.5714 50.6694 33.9906 51.7603C34.4847 51.8328 34.8807 51.6878 35.4742 52.051C35.6715 52.051 35.4742 51.7603 35.9682 51.906C36.0676 51.906 35.9682 52.1241 36.1696 52.1966C37.7519 52.2691 38.444 52.5605 39.8289 52.7055C39.7302 52.4873 39.8289 52.4148 40.0269 52.4873C40.0269 52.5605 39.7302 52.4873 39.9275 52.7055C40.2243 52.7055 40.521 52.7787 40.719 52.9237C41.2138 52.5605 41.5105 53.0693 42.5986 53.1418C41.9059 52.4148 40.719 52.4873 40.1256 52.1241C40.0269 52.3423 39.6308 52.4148 39.2354 52.2691C39.3341 52.1966 39.4368 52.1241 39.3341 51.906C38.9387 51.906 39.0374 51.9785 39.1368 51.6878C37.2571 51.2514 34.488 50.9601 32.5097 50.5969C32.411 51.0333 31.3229 50.7419 30.8315 50.5238C31.0288 50.5238 31.5236 50.7419 31.3256 50.5238C31.2269 50.3056 30.7321 50.3788 30.5348 50.3788C30.6334 50.6694 30.3334 50.8876 30.04 50.6694C30.04 50.4513 30.5348 50.7419 30.4354 50.5969C30.1387 50.5238 29.6446 50.5238 29.7433 50.2331C29.4466 50.2331 29.0512 50.0874 28.9518 50.2331C27.3696 49.9424 24.2044 49.7243 22.4242 50.0149C22.4242 49.7243 21.7321 49.5786 21.534 49.7243C21.6334 49.7243 21.7321 49.7968 21.7321 49.8693C20.8419 49.7968 19.5564 49.8693 18.7649 50.1606C16.3845 49.9431 14.0108 50.8883 11.9338 51.3246V51.324ZM13.4207 39.2527H13.2193C13.1207 39.4709 12.7253 39.5434 12.9226 39.9072C13.4207 39.9797 13.1207 39.3252 13.4207 39.2527ZM14.1128 39.0345C14.1128 38.8889 13.9155 38.8889 13.9155 38.8164C14.0142 38.8164 14.1128 38.8164 14.0142 38.7439C13.8128 38.7439 13.7174 38.8164 13.6188 38.962C13.7141 39.0345 13.9121 39.0345 14.1095 39.0345H14.1128ZM14.5089 38.0162C14.5089 38.2343 14.3075 38.3075 14.2122 38.4525C14.7029 38.5257 15.099 38.2343 14.5055 38.0162H14.5089ZM15.2997 37.5798H15.003V37.798C15.1977 37.8712 15.099 37.653 15.2963 37.5798H15.2997ZM18.1681 34.8168C18.2668 34.8893 18.1681 35.035 18.3662 35.1074C18.3628 35.035 18.5602 34.8168 18.1648 34.8168H18.1681ZM19.157 34.3073C18.9596 34.2348 18.8602 34.4529 19.0583 34.5254C19.0549 34.4529 19.3516 34.5254 19.1536 34.3073H19.157ZM19.6517 33.8709C19.7504 33.9441 19.9484 33.9441 19.9484 33.7984H19.7504C19.747 33.8709 19.6483 33.8709 19.6483 33.8709H19.6517ZM20.2451 34.8168C20.1465 34.9618 19.7504 34.8168 19.8497 35.035C20.0437 35.035 20.5365 34.7436 20.2418 34.8168H20.2451ZM21.432 51.179C21.3333 51.179 21.1353 51.1065 21.0366 51.1065V51.2521C21.2306 51.2521 21.6267 51.3971 21.4286 51.179H21.432ZM22.9156 4.2003C22.9156 4.05463 22.5202 3.98213 22.4208 4.05463C22.3188 4.2728 22.7142 4.2003 22.9122 4.2003H22.9156ZM27.5643 51.2521C26.0807 51.1065 24.7945 51.034 23.707 51.179C24.1977 51.2521 26.6708 51.5428 27.5609 51.2521H27.5643ZM35.3721 52.1973C34.2846 51.9791 32.9984 51.5428 32.0096 51.8335C31.5149 51.3971 29.8333 51.5428 28.7458 51.3246C29.3392 51.761 30.6254 51.761 31.3168 51.6885C32.5057 52.1973 34.1873 52.1248 35.3721 52.1973ZM30.13 50.3063V50.4519C30.2343 50.441 30.3392 50.4667 30.4267 50.5244V50.3794C30.33 50.3794 30.2313 50.3063 30.132 50.3063H30.13ZM31.0221 5.07299C31.0221 5.00049 31.0221 4.85482 30.8248 4.85482C30.8304 4.89685 30.824 4.93961 30.8065 4.97819C30.7889 5.01678 30.7608 5.04964 30.7254 5.07299H31.0221ZM50.7045 6.38202C45.5617 6.89086 38.1432 6.23634 31.9123 5.7275C31.9123 5.8 31.8136 5.87317 31.7149 5.87317C31.4182 5.94567 31.6156 5.655 31.3188 5.655C31.4182 5.94567 31.0221 5.8 31.1215 6.01817C37.5498 7.03653 42.8913 7.03653 48.1328 7.2547C48.4295 6.81836 49.419 7.03653 50.1111 7.03653C50.2098 6.81836 50.0124 6.81836 50.0124 6.60019C50.5065 6.67269 50.7045 6.67269 50.7045 6.38202ZM31.8143 50.5244V50.7426H32.111C32.1103 50.5976 32.0116 50.5244 31.8143 50.5244ZM32.5064 24.3439V24.1982C32.4077 24.1982 32.309 24.1982 32.309 24.1257V24.2707C32.407 24.2714 32.407 24.3446 32.5057 24.3446L32.5064 24.3439ZM33.0998 50.2338C33.4952 50.3063 33.5939 50.4519 33.7919 50.3063C33.5939 50.3063 33.0998 50.0881 33.0998 50.2338ZM33.5939 19.6898C33.6932 19.6166 33.6932 19.6166 33.6932 19.5441C33.5939 19.6173 33.5939 19.6173 33.5939 19.6898ZM35.8689 18.8171V18.6714H35.6709V18.8171H35.8689ZM40.5169 53.2882C39.6268 52.7793 38.44 52.6337 36.9591 52.5611C37.9459 53.07 39.1314 52.9975 40.5169 53.2882ZM38.5393 15.9084C38.44 15.9084 38.638 16.1997 38.3413 16.0541C38.3413 15.9816 38.44 15.9084 38.5393 15.9084ZM39.4294 52.0516C39.6268 52.0516 40.0229 52.1973 40.0229 52.0516C39.8248 52.0516 39.4294 51.9066 39.4294 52.0516ZM44.0782 7.83604C43.8768 7.3272 42.5946 7.61787 42.6933 7.69104C43.188 7.83604 43.3854 7.69104 44.0782 7.83604ZM47.4407 7.83604V7.69104H47.144V7.83604H47.4407ZM47.7374 7.90921V7.76354H47.536V7.83604C47.5394 7.90921 47.6387 7.90921 47.7374 7.90921Z" fill="white"/>
<path d="M49.1828 57.3414C45.9083 53.9037 43.6722 50.9641 40.2647 47.7271C40.4063 47.2431 39.1416 46.4556 38.8825 45.9078C38.7999 45.8313 38.8059 45.9904 38.7677 46.032C38.5582 45.7635 38.5905 45.5621 38.1011 45.2607C38.5851 45.401 37.556 44.5223 37.2646 44.1772C37.1304 43.8235 36.5934 43.2468 36.351 43.1763C35.767 42.4822 34.9131 40.9208 34.2968 40.424C34.2143 40.3475 34.0552 40.3569 34.0995 40.4717C33.89 40.2032 33.9169 39.8407 33.7074 39.5701C32.6669 38.3752 32.0339 37.4032 30.9162 36.2909C29.7327 34.4267 28.2793 32.8471 26.779 30.9943C26.8112 30.7929 26.971 30.7876 27.0529 30.8641C26.7998 30.4754 26.8555 30.9118 26.6904 30.7587C26.489 30.6473 26.4427 30.5291 26.5199 30.4465C26.4373 30.37 26.4427 30.5291 26.3185 30.4942C25.4458 29.4524 24.5503 27.9325 23.5662 27.174C23.4218 26.5027 22.4814 25.8609 22.2994 25.2272C21.6006 24.6573 21.5449 24.2203 20.9669 23.6832C21.3737 23.9061 21.0434 23.6007 21.0763 23.4C20.8286 23.1704 20.6252 23.0583 20.4601 22.9059C20.6521 22.6984 19.923 22.3286 20.0741 22.1634C19.7116 22.058 20.3278 22.5521 20.0915 22.6407C19.7055 21.9023 19.5619 21.2263 18.4945 20.3919C17.0512 17.9752 14.601 15.3216 12.9986 12.913C12.8778 12.8781 12.7187 12.8841 12.8724 12.719C12.2562 12.2249 11.8816 11.8006 11.9084 11.4435C12.0736 11.5965 12.1944 11.6315 12.1501 11.514C14.6554 14.6019 17.2311 17.4536 19.1316 20.369C19.2585 20.5637 19.247 20.2449 19.4558 20.5154C20.1399 21.7647 21.708 23.218 22.5122 24.5022C24.1623 26.0321 25.1055 27.8285 26.6407 29.4826C27.5658 30.8017 29.2547 32.2899 29.8999 33.5775C33.263 37.2327 35.5549 41.0503 39.1637 44.9345C42.1054 48.7421 46.6104 53.1914 49.7393 56.8164C50.339 56.2579 50.9334 55.6947 51.5223 55.1268L51.288 54.865C51.1672 54.8294 51.0403 54.6354 51.0786 54.5964L50.8309 54.3669L50.71 54.3319C50.7429 54.1306 50.2536 53.8318 50.1327 53.7949C50.0884 53.6774 50.0824 53.5183 49.9172 53.3653L49.3802 52.788C49.3802 52.788 49.2976 52.7114 49.3359 52.6705C47.9181 52.0489 46.8098 50.0988 45.5666 48.7924C45.2511 47.8076 43.6124 46.5966 42.8143 45.4715C42.782 45.6729 42.6169 45.5192 42.4961 45.4843C42.1658 45.1782 42.5229 45.1244 42.1926 44.8183C42.1161 44.9009 42.198 44.9774 42.1597 45.0197C41.7476 44.6371 42.0255 44.666 41.7798 44.4364C41.4938 44.2484 41.9449 44.5894 41.7858 44.5961C41.6207 44.4431 41.4999 44.4075 41.4173 44.331C41.6146 44.2833 41.3287 44.0953 41.1635 43.9423C41.1199 43.8248 41.1582 43.7832 41.2347 43.7006C36.1771 37.2421 30.1301 30.0277 25.6418 23.9417C26.0446 24.0088 25.3505 23.594 25.5861 23.5053C23.0043 20.4973 20.9448 17.5879 18.5664 14.6912C18.1213 14.5093 18.1481 14.1495 17.7467 14.0871C16.8425 12.2484 14.1694 10.0015 13.3034 8.12192C12.136 6.73233 11.4526 5.48372 10.1268 4.10018C9.99256 3.74708 9.4374 2.69046 8.87686 2.63474C8.51302 1.90705 7.6014 1.06256 6.86633 0.62085C6.81934 0.630919 6.75758 0.644345 6.68239 0.661799C6.45013 2.31252 6.21249 3.95921 5.93457 5.5777C6.32996 6.11474 6.7898 6.7518 7.08987 7.21298C7.33154 7.28011 7.73297 7.34724 7.90348 7.65872C7.87126 7.86011 7.53494 7.39423 7.46445 7.63657C9.00844 9.60884 10.735 12.053 12.2709 13.7064C14.9024 16.9924 16.6377 19.7548 19.7895 23.1388C19.7955 23.2979 19.9237 23.4926 20.0486 23.6873C20.5856 24.1041 21.5013 25.2641 21.8873 26.0066C21.9638 25.924 22.0027 25.8824 22.1679 26.0355C22.2504 26.112 22.1732 26.1946 22.135 26.2368C22.3001 26.3899 22.6686 26.6544 22.4706 26.7021C23.2131 27.3908 23.4722 27.9386 24.0945 28.5918C24.1327 28.5501 24.0884 28.4327 24.171 28.5092C24.3053 28.863 24.8047 29.4806 25.0961 29.8283C25.0518 29.7101 25.0907 29.6692 25.1726 29.745C25.3491 30.215 25.8774 30.4747 25.9332 30.9118C26.34 31.1346 26.7199 31.7173 26.7703 31.9952C27.0824 31.8234 27.557 32.8008 27.7665 33.0693C27.8927 33.264 27.9638 33.0216 28.1733 33.2928C28.3109 33.8057 28.5975 33.9937 29.1695 34.3669C29.0158 34.5327 29.2192 34.6442 29.346 34.8368C29.3843 34.7959 29.5051 34.8308 29.5877 34.904C30.1247 35.4806 30.398 36.3472 30.9256 36.6057C31.0135 36.8413 31.0196 37.0004 31.2612 37.0709C31.223 37.1119 31.2673 37.23 31.229 37.2723C31.4385 37.5408 31.515 37.4603 31.6801 37.6133C31.6412 37.6543 31.6029 37.6959 31.6472 37.8147C31.9775 38.1201 32.4286 38.4612 32.3575 38.7035C32.8086 39.0445 32.6877 39.0096 33.0999 39.3916L32.9496 39.5601C33.4866 39.9776 33.545 40.5731 34.1492 40.7489C34.0397 41.0322 34.4177 41.4565 34.8265 41.8385C34.7829 41.7203 35.0628 41.7498 34.8977 41.5968C35.0568 41.5901 35.1071 41.8653 35.3105 41.9788C35.1514 41.9848 35.0306 41.9499 34.8265 41.8385C34.9916 41.9915 35.0359 42.107 35.1185 42.1862C34.9977 42.1506 34.9594 42.1922 34.9211 42.2332C35.0863 42.3862 35.1568 42.1446 35.3662 42.4158C35.2568 42.6991 35.867 43.0334 35.7959 43.2757C36.1912 43.1804 36.5833 44.0812 36.9136 44.388C37.0344 44.4229 37.0223 44.1041 37.1874 44.2538C37.1935 44.4129 37.6446 44.7546 37.6117 44.9553C37.3318 44.9257 37.1935 44.4129 36.9961 44.4612C37.3257 44.7666 37.3761 45.0439 37.6238 45.2735C37.8715 45.5031 38.1011 45.2547 38.3166 45.685C37.948 45.4205 37.5466 45.3567 37.8386 45.7038C38.048 45.9723 37.9923 45.538 38.1575 45.691C38.2454 45.9266 37.8003 45.7447 38.2515 46.0864C38.4159 46.2388 38.1172 45.7326 38.3662 45.9622C38.334 46.1636 38.9033 46.5389 38.7522 46.7006C39.2859 47.1182 39.5336 47.3478 39.7102 47.8197C39.7867 47.7365 39.7424 47.6183 39.8632 47.6539C39.9518 47.8895 39.919 48.0902 40.1667 48.3198C40.2439 48.2366 40.0324 47.966 40.2821 48.1956C40.5084 48.9441 42.0208 49.9611 42.4068 50.7036C42.445 50.662 42.4007 50.5438 42.4833 50.6203C43.0667 51.3151 43.789 52.5228 44.6905 53.2048L46.4413 55.2892L47.4375 56.3633L48.3457 57.2152C48.3457 57.2152 48.3068 57.2568 48.3894 57.3333L48.7633 57.7361C48.9036 57.6038 49.0425 57.4716 49.1828 57.3414ZM46.8145 52.4127C46.5346 52.3838 46.3191 51.9535 46.0331 51.7656L46.1103 51.683C46.5151 51.9059 46.448 52.1482 46.8145 52.4127ZM45.241 50.8016C44.955 50.6136 45.1141 50.6069 44.9872 50.4129C45.0255 50.3679 45.4001 50.7935 45.2396 50.8003L45.241 50.8016ZM40.5842 45.5621L40.5459 45.6038C40.5459 45.6038 40.4634 45.5272 40.4251 45.5688L40.5016 45.4863L40.5842 45.5621ZM40.4573 45.3681C40.3365 45.3332 40.2559 45.2567 40.1774 45.3393C40.1331 45.2211 40.2103 45.1379 39.9243 44.9506C40.0774 44.7841 40.1714 45.1788 40.4573 45.3668V45.3681ZM35.3152 38.8324L35.1615 38.9982C34.7433 38.4565 34.2425 37.8382 33.7853 37.3381C33.8236 37.2965 33.7799 37.179 33.7799 37.179C34.3573 37.7127 34.6164 38.2604 35.3152 38.831V38.8324ZM33.4879 36.8312C32.9509 36.4137 32.9428 36.0928 32.5683 35.6712C32.9751 35.8934 33.4376 36.5527 33.4879 36.8299V36.8312ZM32.485 35.5934C32.4031 35.5168 32.3588 35.3994 32.238 35.3638C32.2326 35.2047 32.6448 35.5873 32.485 35.5934ZM14.5104 16.0882C14.6701 16.0815 15.0823 16.4641 14.9675 16.5883C14.6433 16.4413 14.7964 16.2755 14.5104 16.0882ZM15.2092 16.6581C15.2535 16.7763 15.2152 16.8172 15.2978 16.8944C15.2213 16.977 15.0118 16.7058 15.2092 16.6581ZM15.3032 17.0535C15.2978 16.8944 15.71 17.2764 15.5509 17.2831L15.3032 17.0535ZM20.5111 23.1878L20.5876 23.1046L20.6702 23.1804L20.5937 23.2637L20.5111 23.1878ZM28.8741 33.8614L29.0392 34.0145C29.0453 34.1736 28.9245 34.1387 28.7593 33.9856L28.8741 33.8614ZM31.2203 36.9588L31.2968 36.8749L31.3794 36.9514L31.3022 37.034L31.2203 36.9588ZM35.3152 42.1399C35.5166 42.252 35.524 42.4084 35.5683 42.5292C35.5314 42.5708 35.1568 42.1472 35.3165 42.1405L35.3152 42.1399ZM36.4054 43.612C36.3611 43.4945 36.3168 43.3764 36.4759 43.3703C36.6489 43.5304 36.7797 43.7308 36.8565 43.9537C36.7363 43.9188 36.5719 43.7657 36.4067 43.6127L36.4054 43.612ZM37.7372 45.156C37.6547 45.0795 37.5721 45.0029 37.5358 45.0446C37.5298 44.8855 37.6949 45.0378 37.7775 45.1117L37.7372 45.156ZM43.9024 52.406L43.979 52.3234L44.0615 52.4L43.985 52.4825L43.9024 52.406Z" fill="white"/>
</svg>
